<svg width="541" height="106" viewBox="0 0 541 106" fill="none" xmlns="http://www.w3.org/2000/svg">
<path d="M243.202 52.9248V105.849H261.225V46.2858H291.111V31.9048H260.247C247.573 31.9048 243.223 42.4148 243.223 52.9248H243.202Z" fill="white"/>
<path d="M124.515 6.18164L124.556 23.8509H142.496L142.538 6.18164H124.515Z" fill="white"/>
<path d="M142.538 31.9048H124.494V105.849H142.538V31.9048Z" fill="white"/>
<path d="M428.176 105.849C411.235 105.849 404.18 99.252 404.18 82.4776V46.265H388.321V31.9048H404.263V12.0503H422.245V31.9048H453.358V46.265H422.245V91.5516C429.383 91.5516 447.552 91.6348 453.608 91.5516V105.829H428.176V105.849Z" fill="white"/>
<path d="M0 31.9048V105.849H17.9814V46.265H46.3688V105.849H64.3711V46.265H92.7584V105.849H110.74V31.9048H0Z" fill="white"/>
<path d="M232.526 0H214.524V31.9046H178.894C160.454 31.9046 155.355 39.8339 154.752 52.9245V91.4889V105.849H214.565H232.567L232.526 0ZM214.544 91.4681H172.754V46.2856H214.524V91.4681H214.544Z" fill="white"/>
<path d="M357.667 31.9048H303.161V46.265L362.35 46.1609V60.417H303.161V105.87H380.331V60.417V58.9602C380.331 45.9112 380.331 32.2586 357.667 31.9256V31.9048ZM321.288 91.4891V74.7772H362.329V91.4891H321.288Z" fill="white"/>
<path d="M518.145 31.9048H463.639V46.265L522.828 46.1609V60.417H463.639V105.87H540.81V60.417V58.9602C540.81 45.9112 540.81 32.2586 518.145 31.9256V31.9048ZM481.787 91.4891V74.7772H522.828V91.4891H481.787Z" fill="white"/>
</svg>
